<?xml version="1.0" encoding="iso-8859-1"?>
<!-- Generator: Adobe Illustrator 18.0.0, SVG Export Plug-In . SVG Version: 6.00 Build 0)  -->
<!DOCTYPE svg PUBLIC "-//W3C//DTD SVG 1.1//EN" "http://www.w3.org/Graphics/SVG/1.1/DTD/svg11.dtd">
<svg version="1.1" id="Capa_1" xmlns="http://www.w3.org/2000/svg" xmlns:xlink="http://www.w3.org/1999/xlink" x="0px" y="0px"
	 viewBox="0 0 234.769 234.769" style="enable-background:new 0 0 234.769 234.769;" xml:space="preserve">
<g>
	<path d="M208.157,101.206c3.333-5.475,7.686-12.626,7.686-12.626l-48.305-2.184l24.126,41.906c0,0,3.765-6.185,6.009-9.872
		c5.908,4.973,11.161,11.581,11.161,19.356c0,20.205-38.776,42.718-94.417,42.718S20,157.991,20,137.786
		c0-4.199,1.58-8.442,4.695-12.613c1.594-2.134,3.538-4.188,5.781-6.154l-8.663-18.663c-5.243,3.922-9.683,8.218-13.141,12.849
		C2.917,120.907,0,129.178,0,137.786c0,18.049,12.812,34.458,36.076,46.204c21.092,10.649,48.915,16.514,78.341,16.514
		s57.249-5.865,78.341-16.514c23.264-11.746,36.076-28.155,36.076-46.204C228.834,124.333,221.581,111.648,208.157,101.206z"/>
	<path d="M56.633,143.889h18.921V47.93H60.012c-0.406,7.163-5.271,16.624-23.517,16.624h-2.704v13.244h22.841V143.889z"/>
	<path d="M87.967,97.127c0,33.653,10.677,49.33,33.247,49.33c22.571,0,33.248-15.677,33.248-49.33
		c0-33.653-10.677-49.196-33.248-49.196C98.644,47.93,87.967,63.474,87.967,97.127z M121.214,63.068
		c10.813,0,13.786,9.325,13.786,34.059c0,24.732-2.973,34.193-13.786,34.193c-10.812,0-13.786-9.461-13.786-34.193
		C107.428,72.393,110.403,63.068,121.214,63.068z"/>
	<path d="M173.725,50.865c0.73-1.022,2.483-2.385,3.797-2.385c0.974,0,1.655,0.487,1.655,2.24v20.154h6.134V50.865
		c0.779-1.022,2.677-2.385,3.846-2.385c0.974,0,1.606,0.487,1.606,2.24v20.154h6.134V50.914c0-4.771-1.899-7.01-5.599-7.01
		c-2.677,0-4.625,1.899-6.523,3.992c-0.73-2.434-2.385-3.992-4.673-3.992c-2.58,0-4.576,1.704-6.572,3.505v-3.018h-5.939v26.483
		h6.134V50.865z"/>
	<rect x="203.516" y="34.265" width="6.134" height="5.55"/>
	<rect x="203.516" y="44.391" width="6.134" height="26.483"/>
	<path d="M216.27,70.874h6.134V50.865c1.314-1.168,2.726-2.385,3.992-2.385c1.655,0,2.239,1.169,2.239,2.921v19.473h6.134V50.719
		c0-4.917-1.947-6.815-5.696-6.815c-2.531,0-4.625,1.558-6.864,3.505v-3.018h-5.939V70.874z"/>
</g>
<g>
</g>
<g>
</g>
<g>
</g>
<g>
</g>
<g>
</g>
<g>
</g>
<g>
</g>
<g>
</g>
<g>
</g>
<g>
</g>
<g>
</g>
<g>
</g>
<g>
</g>
<g>
</g>
<g>
</g>
</svg>
